<svg width="64" height="64" viewBox="0 0 64 64" fill="none" xmlns="http://www.w3.org/2000/svg">
<path d="M24.48 48.9067C28.1067 51.7333 31.68 53.28 31.84 53.3333L32.1067 53.44L32.3734 53.3333C32.5334 53.28 36.0534 51.7333 39.68 48.9067C44.5334 45.12 47.0934 40.8 47.0934 36.3733V16.32H17.0134V36.0533C17.0134 40.5867 19.5734 45.0667 24.48 48.9067ZM31.36 42.72C31.2 42.6667 31.04 42.6133 30.8267 42.6133C30.8267 42.6133 30.8267 42.6133 30.7734 42.6133C30.0267 42.6133 29.4934 42.6667 28.9067 42.72C28.32 42.7733 27.7334 42.8267 26.88 42.8267C26.5067 42.8267 26.1334 42.8267 25.8667 42.8267V33.44C25.92 33.44 25.9734 33.44 25.9734 33.44C26.3467 33.44 26.7734 33.44 27.36 33.44C27.84 33.44 28.3734 33.3867 28.96 33.3333C29.28 33.28 29.6534 33.28 30.0267 33.2267C30.6667 33.1733 31.2 33.28 31.2 33.28C31.2534 33.28 31.3067 33.3333 31.36 33.3333C31.36 33.28 31.36 42.72 31.36 42.72ZM45.6534 36.3733C45.6534 44.5867 35.5734 50.1333 32.5867 51.6267V44.16C32.64 44.1067 32.6934 44.0533 32.7467 44C32.9067 43.84 33.0134 43.7333 33.28 43.7333C33.9734 43.7333 34.5067 43.7867 35.0934 43.84C35.68 43.8933 36.2667 43.9467 37.1734 43.9467C38.08 43.9467 38.7734 43.9467 38.7734 43.9467H39.2534V41.1733H40.4267V39.68H39.2534V36.96H40.4267V35.4667H39.2534V32.4267H38.72C38.5067 32.4267 38.2934 32.4267 38.0267 32.4267C37.6534 32.4267 37.2267 32.4267 36.6934 32.4267C36.2667 32.4267 35.7867 32.3733 35.2 32.32C34.88 32.2667 34.5067 32.2667 34.1334 32.2133C33.3334 32.1067 32.64 32.2667 32.5867 32.2667C32.5867 32.2667 32.5867 32.2667 32.5334 32.2667V29.3333H45.6L45.6534 36.3733ZM32.5867 42.7733V33.3333C32.64 33.28 32.7467 33.28 32.8534 33.2267C32.8534 33.2267 33.44 33.12 34.08 33.1733C34.4534 33.2267 34.8267 33.2267 35.1467 33.28C35.7334 33.3333 36.2667 33.3867 36.7467 33.3867C37.2267 33.3867 37.6 33.3867 37.9734 33.3867C38.08 33.3867 38.1867 33.3867 38.24 33.3867V42.8267C37.9734 42.8267 37.6 42.8267 37.2267 42.8267C36.3734 42.8267 35.7867 42.7733 35.2 42.72C34.6134 42.6667 34.08 42.6133 33.3334 42.6133C33.0134 42.6667 32.8 42.72 32.5867 42.7733ZM18.4534 17.76H45.6534V27.9467H18.4534V17.76ZM18.4534 29.3333H31.4134V32.16C31.2 32.1067 30.6134 32.0533 29.9734 32.1067C29.6 32.16 29.2267 32.16 28.9067 32.2133C28.32 32.2667 27.84 32.32 27.4134 32.32C26.88 32.32 26.4534 32.32 26.08 32.32C25.8134 32.32 25.6 32.32 25.3867 32.32H24.8534V35.04H23.5734V36.5333H24.8534V39.2533H23.5734V40.7467H24.8534V43.7867H25.3334C25.3867 43.7867 26.08 43.84 26.9334 43.7867C27.84 43.7867 28.48 43.7333 29.0134 43.68C29.6 43.6267 30.08 43.5733 30.7734 43.5733C31.04 43.5733 31.1467 43.68 31.2534 43.84L31.3067 43.8933V51.4133C28.2667 50.0267 18.4534 44.5333 18.4534 36.0533V29.3333Z" fill="black"/>
<path d="M29.8134 18.7733H22.1867V19.3067C22.1867 20.96 22.1867 23.7867 22.1867 23.8933C22.24 24.48 22.6134 25.0133 23.36 25.4933C24.2667 26.1333 25.6534 26.9333 25.7067 26.9333L25.9734 27.0933L26.24 26.9333C26.2934 26.88 27.7867 26.08 28.6934 25.4933C29.76 24.8 29.8134 24.1067 29.8134 23.8933C29.8134 23.7867 29.8134 21.3333 29.8134 19.3067V18.7733V18.7733ZM23.2534 19.84H28.6934C28.6934 20.2667 28.6934 20.7467 28.6934 21.2267H23.2534C23.2534 20.7467 23.2534 20.2667 23.2534 19.84ZM28.7467 23.84C28.7467 24.1067 28.3734 24.3733 28.1067 24.5867C27.4667 25.0133 26.4534 25.6 25.9734 25.8667C25.5467 25.6 24.5867 25.0667 23.9467 24.5867C23.52 24.32 23.2534 24 23.2534 23.7867C23.2534 23.7333 23.2534 23.0933 23.2534 22.24H28.6934C28.7467 23.0933 28.7467 23.7333 28.7467 23.84Z" fill="black"/>
<path d="M42.72 18.56H34.9867V19.0933C34.9867 21.1733 34.9867 23.68 34.9867 23.84C35.04 24.4267 35.4134 24.96 36.16 25.44C37.12 26.08 38.5067 26.88 38.56 26.9333L38.8267 27.0933L39.0934 26.9333C39.1467 26.88 40.6934 26.08 41.6 25.44C42.72 24.6933 42.72 24.0533 42.72 23.84C42.72 23.7333 42.72 21.2267 42.72 19.1467V18.56ZM41.6534 23.7333C41.6534 24 41.28 24.32 41.0134 24.48C40.32 24.9067 39.3067 25.4933 38.8267 25.76C38.3467 25.4933 37.44 24.9067 36.7467 24.48C36.5334 24.32 36.0534 24 36.0534 23.68C36.0534 23.6267 36.0534 23.5733 36.0534 23.4133L38.72 21.4933L41.6534 23.4667C41.6534 23.6267 41.6534 23.7333 41.6534 23.7333ZM38.72 20.16L36.0534 22.08C36.0534 21.3333 36.0534 20.3733 36.0534 19.5733H41.7067C41.7067 20.4267 41.7067 21.3333 41.7067 22.1333L38.72 20.16Z" fill="black"/>
<path d="M33.9733 35.4667L34.5067 35.52C34.8267 35.5733 35.1467 35.5733 35.4133 35.5733L36.96 35.6267V34.56L35.4133 34.5067C35.2 34.5067 34.9333 34.4533 34.6133 34.4533L34.08 34.4C33.92 34.4 33.8133 34.4 33.7067 34.4L33.76 35.4667C33.8133 35.4133 33.92 35.4133 33.9733 35.4667Z" fill="black"/>
<path d="M35.4133 37.44C35.2 37.44 34.9333 37.3867 34.6133 37.3867C34.4533 37.3867 34.24 37.3333 34.08 37.3333C33.92 37.3333 33.8133 37.3333 33.7067 37.3333V38.4C33.76 38.4 33.8667 38.4 33.9733 38.4C34.1867 38.4 34.3467 38.4533 34.5067 38.4533C34.8267 38.5067 35.0933 38.5067 35.36 38.5067C35.68 38.5067 36.16 38.5067 36.5333 38.5067H36.96V37.44H36.5333C36.2133 37.4933 35.7333 37.44 35.4133 37.44Z" fill="black"/>
<path d="M35.4133 40.4267C35.2 40.4267 34.9333 40.3733 34.6133 40.3733C34.4533 40.3733 34.24 40.32 34.08 40.32C33.92 40.32 33.8133 40.32 33.7067 40.32L33.76 41.3867C33.8133 41.3867 33.92 41.3867 34.0267 41.3867C34.24 41.3867 34.4 41.44 34.56 41.44C34.88 41.4933 35.2 41.4933 35.4133 41.4933H35.84C36.2667 41.4933 36.8 41.4933 36.96 41.5467V40.48C36.8 40.48 36.2667 40.48 35.84 40.4267H35.4133Z" fill="black"/>
<path d="M28.6934 35.5733C28.9601 35.5733 29.2267 35.52 29.6001 35.52C29.7601 35.52 29.9201 35.4667 30.1334 35.4667C30.2401 35.4667 30.2934 35.4667 30.4001 35.4667V34.4C30.2934 34.4 30.1867 34.4 30.0267 34.4C29.8134 34.4 29.6534 34.4533 29.4934 34.4533C29.1734 34.5067 28.9067 34.5067 28.6934 34.5067L27.1467 34.56V35.6267L28.6934 35.5733Z" fill="black"/>
<path d="M29.4934 37.3867C29.1734 37.44 28.9067 37.44 28.6934 37.44L27.1467 37.4933V38.56L28.6934 38.5067C28.9601 38.5067 29.2267 38.4533 29.6001 38.4533L30.0801 38.4C30.1867 38.4 30.2401 38.4 30.2934 38.4L30.3467 37.3333C30.2401 37.3333 30.1334 37.3333 29.9734 37.3333L29.4934 37.3867Z" fill="black"/>
<path d="M29.4934 40.32C29.1734 40.3733 28.9067 40.3733 28.6401 40.3733C28.1601 40.3733 27.3601 40.4267 27.1467 40.4267V41.4933C27.3601 41.4933 28.1601 41.44 28.6934 41.44C28.9601 41.44 29.2267 41.3867 29.6001 41.3867L30.1334 41.3333C30.1867 41.3333 30.2934 41.3333 30.3467 41.3333V40.2667C30.2401 40.2667 30.1334 40.2667 29.9734 40.2667L29.4934 40.32Z" fill="black"/>
<path d="M4.96001 32.16C6.29334 32.16 7.09334 31.3067 7.20001 29.8133C7.20001 29.5467 7.20001 29.1733 7.14668 28.8V28.6933H6.02668L6.13334 28.9067C6.18668 29.0667 6.24001 29.44 6.24001 29.76C6.18668 30.5067 5.60001 30.9867 4.80001 30.9333C3.94668 30.88 3.46668 30.3467 3.46668 29.6C3.46668 29.3333 3.52001 29.0667 3.73334 28.8L3.89334 28.5867L2.82668 28.4267L2.77334 28.5333C2.61334 28.8533 2.56001 29.2267 2.50668 29.5467C2.40001 31.0933 3.25334 32.1067 4.80001 32.16C4.85334 32.16 4.90668 32.16 4.96001 32.16Z" fill="black"/>
<path d="M5.17338 26.9333C5.49338 27.04 5.76005 27.04 6.02672 27.04C7.04005 27.04 7.78672 26.4533 8.10672 25.44C8.26672 24.8 8.21338 24.2667 7.94672 23.7333C7.62672 23.2 7.09338 22.8267 6.40005 22.6133C6.13338 22.5067 5.81338 22.5067 5.60005 22.5067C4.58672 22.5067 3.84005 23.0933 3.52005 24.1067C3.09338 25.44 3.73338 26.5067 5.17338 26.9333ZM4.42672 24.4267C4.58672 23.84 5.06672 23.7333 5.44005 23.7333C5.60005 23.7333 5.81338 23.7867 6.02672 23.84C6.50672 24 6.88005 24.2133 7.04005 24.5333C7.14672 24.7467 7.20005 24.96 7.09338 25.2267C6.93338 25.8133 6.45338 25.92 6.08005 25.92C5.86672 25.92 5.70672 25.8667 5.49338 25.8133C4.85338 25.6 4.21338 25.12 4.42672 24.4267Z" fill="black"/>
<path d="M9.76001 20.96L8.21334 20.1067L8.26667 20C8.42667 19.7333 8.53334 19.7333 8.74667 19.7867L10.2933 20L10.88 18.88L8.85334 18.6667C8.69334 18.6667 8.58667 18.6667 8.48001 18.6667C8.48001 18.24 8.26667 17.8133 7.84001 17.6C7.62667 17.4933 7.41334 17.44 7.20001 17.44C6.45334 17.44 6.08001 18.1867 5.70667 18.88L5.17334 19.8933L9.22667 22.08L9.76001 20.96ZM7.36001 19.52L7.30667 19.6267L6.56001 19.2533L6.61334 19.1467C6.77334 18.8267 6.98667 18.5067 7.30667 18.6667C7.41334 18.72 7.46667 18.7733 7.52001 18.88C7.57334 19.0933 7.46667 19.36 7.36001 19.52Z" fill="black"/>
<path d="M12.2667 16.9067L10.1867 15.2L13.1733 15.8933L13.9733 14.88L10.4533 11.9467L9.70667 12.8L11.84 14.56L8.85333 13.8667L8 14.88L11.5733 17.8133L12.2667 16.9067Z" fill="black"/>
<path d="M17.4401 11.9467L16.8001 11.2L15.5201 12.2133L14.9334 11.52L16.1067 10.56L15.4667 9.81333L14.2934 10.7733L13.8667 10.1867L15.1467 9.17333L14.5067 8.37333L12.3201 10.1333L15.2001 13.7067L17.4401 11.9467Z" fill="black"/>
<path d="M21.2267 9.65333L20.7467 8.8L19.3067 9.6L17.5467 6.45333L16.5334 7.04L18.7734 11.04L21.2267 9.65333Z" fill="black"/>
<path d="M25.12 8.16L24.7467 7.25333L23.2533 7.78667L22.0267 4.42667L20.9067 4.8L22.4533 9.12L25.12 8.16Z" fill="black"/>
<path d="M29.7601 7.41333C29.8667 7.41333 29.9201 7.41333 30.0267 7.41333C30.6667 7.36 31.1467 7.14667 31.4134 6.82667C31.6801 6.50667 31.7867 6.02667 31.7334 5.49333L31.5201 2.61333L30.3467 2.66667L30.5601 5.28C30.6134 6.18667 30.2401 6.34667 29.9201 6.4C29.8667 6.4 29.8667 6.4 29.8134 6.4C29.5467 6.4 29.1734 6.29333 29.0667 5.38667L28.8534 2.77333L27.6801 2.88L27.8934 5.76C28.1067 6.82667 28.6934 7.41333 29.7601 7.41333Z" fill="black"/>
<path d="M35.04 4.69333L36 7.52L37.3334 7.73333L37.92 3.14667L36.8 2.98667L36.4267 5.70667L35.4667 2.82667L34.1867 2.66667L33.5467 7.2L34.6667 7.36L35.04 4.69333Z" fill="black"/>
<path d="M41.3867 4.16L40.2667 3.78667L38.8801 8.16L40.0001 8.53333L41.3867 4.16Z" fill="black"/>
<path d="M47.1467 6.72L46.1334 6.18667L43.8934 8.48L44.3734 5.33333L43.2534 4.74667L42.5601 9.6L43.7334 10.1333L47.1467 6.72Z" fill="black"/>
<path d="M48.32 13.3333L48.9067 12.5333L47.6267 11.52L48.16 10.8267L49.3334 11.7333L49.9733 10.9333L48.8 10.0267L49.2267 9.44L50.5067 10.4533L51.1467 9.65333L48.9067 7.94667L46.08 11.5733L48.32 13.3333Z" fill="black"/>
<path d="M50.2401 15.2533L51.5734 14.08L51.6267 14.1867C51.7867 14.4 51.7867 14.4533 51.6801 14.72L50.9334 16.1067L51.7867 17.0667L52.6934 15.2533C52.7467 15.2 52.8001 15.04 52.8001 14.88C53.1734 15.04 53.6534 14.9867 54.0267 14.6667C55.0401 13.8133 54.2401 12.9067 53.6534 12.2133L52.9067 11.36L49.4401 14.4L50.2401 15.2533ZM52.9601 12.8533L53.0134 12.96C53.1734 13.1733 53.3334 13.3867 53.3334 13.5467C53.3334 13.6533 53.2801 13.7067 53.1734 13.76C53.1201 13.8667 53.0134 13.8667 52.9601 13.8667C52.7467 13.8667 52.5334 13.6533 52.4267 13.4933L52.3734 13.3867L52.9601 12.8533Z" fill="black"/>
<path d="M54.5067 18.9333C54.2933 19.0933 53.9733 18.8267 53.8667 18.6133C53.7067 18.3467 53.6533 18.08 53.6533 17.7067V17.44L52.5867 17.92L52.64 18.1333C52.7467 18.5067 52.8 18.72 53.0133 19.0933C53.3867 19.7333 53.8667 20.0533 54.4 20.0533C54.6667 20.0533 54.88 20 55.1467 19.84C55.9467 19.36 55.84 18.6133 55.7333 18.0267C55.68 17.6533 55.6267 17.3867 55.7867 17.28C55.8933 17.2267 55.9467 17.2267 56 17.2267C56.2133 17.2267 56.3733 17.44 56.4267 17.4933C56.5867 17.7067 56.64 17.9733 56.6933 18.24L56.7467 18.4533L57.7067 18.0267V17.92C57.6533 17.6 57.4933 17.28 57.28 16.9067C56.8 16.0533 55.9467 15.7867 55.2 16.2667C54.4 16.7467 54.5067 17.4933 54.6133 18.0267C54.6667 18.56 54.72 18.8267 54.5067 18.9333Z" fill="black"/>
<path d="M58.8633 20.2986L54.6165 22.031L55.0596 23.1174L59.3064 21.385L58.8633 20.2986Z" fill="black"/>
<path d="M59.3067 24.64L55.84 25.4933L56.1067 26.6133L59.6267 25.76L59.8934 26.9333L60.8534 26.72L60 23.2L59.04 23.4667L59.3067 24.64Z" fill="black"/>
<path d="M56.64 30.1867L56.6934 31.36L58.5067 31.2533L61.3867 32.7467L61.3334 31.4667L59.6267 30.6667L61.2267 29.6533L61.12 28.2667L58.4533 30.1333L56.64 30.1867Z" fill="black"/>
<path d="M5.86671 40.7467L6.82671 40.48L6.45338 39.0933L7.14671 38.88L7.57338 40.3733L8.53338 40.0533L7.78671 37.4933L3.36005 38.7733L3.68005 39.8933L5.49338 39.36L5.86671 40.7467Z" fill="black"/>
<path d="M9.97335 44.5867C10.1333 44.0533 10.08 43.4667 9.81335 42.88C9.38668 42.0267 8.74668 41.6 7.89335 41.6C7.52001 41.6 7.09335 41.7067 6.66668 41.92C5.97335 42.24 5.54668 42.72 5.33335 43.3067C5.17335 43.84 5.22668 44.4267 5.49335 45.0133C5.92001 45.8133 6.56001 46.2933 7.41335 46.2933C7.78668 46.2933 8.21335 46.1867 8.64001 45.9733C9.33335 45.6 9.81335 45.1733 9.97335 44.5867ZM8.16001 44.8533C7.89335 45.0133 7.57335 45.0667 7.30668 45.0667C6.88001 45.0667 6.61335 44.9067 6.45335 44.5333C6.34668 44.2667 6.29335 44.0533 6.40001 43.84C6.50668 43.52 6.82668 43.2 7.25335 42.9867C7.52001 42.88 7.78668 42.7733 8.05335 42.7733C8.48001 42.7733 8.74668 42.9333 8.90668 43.3067C9.01335 43.5733 9.06668 43.7867 8.96001 44C8.85335 44.32 8.58668 44.64 8.16001 44.8533Z" fill="black"/>
<path d="M13.1734 48.16L11.0934 49.8133C10.56 50.24 10.1334 50.2933 9.81337 49.92C9.70671 49.76 9.65338 49.6 9.65338 49.44C9.70671 49.2267 9.86671 48.96 10.1867 48.6933L12.2667 47.04L11.52 46.1333L9.22671 47.9467C8.74671 48.32 8.48004 48.7467 8.48004 49.2267C8.48004 49.6533 8.64004 50.08 9.01337 50.56C9.44004 51.1467 9.92004 51.4133 10.4534 51.4133C10.8267 51.4133 11.2 51.2533 11.5734 50.9333L13.8667 49.0667L13.1734 48.16Z" fill="black"/>
<path d="M17.0667 51.8933L15.36 54.0267L16 51.04L14.9867 50.1867L12.0533 53.76L12.96 54.5067L14.6667 52.3733L14.0267 55.36L15.04 56.2133L17.9733 52.64L17.0667 51.8933Z" fill="black"/>
<path d="M20.48 54.08L19.3067 53.4933L17.2267 57.6L18.4 58.1867C18.9867 58.4533 19.4667 58.6133 19.9467 58.6133C20.7467 58.6133 21.3867 58.1867 21.8134 57.3333C22.5067 55.9467 22.0267 54.88 20.48 54.08ZM20.6934 56.8C20.48 57.28 20.0534 57.5467 19.5734 57.5467C19.36 57.5467 19.2 57.4933 18.9867 57.3867L18.72 57.2267L19.8934 54.88L20.16 55.04C20.48 55.2 20.6934 55.4667 20.8 55.7333C20.9067 56.1067 20.8534 56.4267 20.6934 56.8Z" fill="black"/>
<path d="M23.04 60.16L25.76 60.9067L26.0267 59.9467L24.4267 59.52L24.64 58.6667L26.1334 59.04L26.4 58.08L24.9067 57.7067L25.0667 56.96L26.72 57.3867L26.9334 56.4267L24.2134 55.7333L23.04 60.16Z" fill="black"/>
<path d="M29.8134 56.8L28.48 56.7467L28.2134 61.3333L29.5467 61.3867C29.6534 61.3867 29.76 61.3867 29.8667 61.3867C31.4134 61.3867 32.2134 60.64 32.32 59.2C32.3734 58.5067 32.2134 57.92 31.84 57.4933C31.4134 57.12 30.7734 56.8533 29.8134 56.8ZM29.76 60.4267H29.44L29.6 57.8133H29.92C30.56 57.8667 31.1467 58.3467 31.0934 59.2C31.04 60.0533 30.4 60.4267 29.76 60.4267Z" fill="black"/>
<path d="M36.3734 56.4267L35.5734 61.28L36.8 61.0133L36.96 60L38.4534 59.68L39.04 60.5867L40.32 60.32L37.6 56.2133L36.3734 56.4267ZM37.12 58.9867L37.28 57.76L37.92 58.7733L37.12 58.9867Z" fill="black"/>
<path d="M40.7467 58.8267L41.1734 59.9467L42.24 59.52L41.8667 58.4533L40.7467 58.8267Z" fill="black"/>
<path d="M42.9867 54.1867L41.8134 54.8267L44 58.88L45.1733 58.24C46.72 57.3867 47.0933 56.32 46.4 54.9867C45.7067 53.6 44.5334 53.3333 42.9867 54.1867ZM44.8533 57.28L44.5867 57.44L43.36 55.1467L43.6267 54.9867C43.7867 54.88 44 54.8267 44.2134 54.8267C44.6934 54.8267 45.0667 55.0933 45.3334 55.52C45.76 56.2667 45.3867 56.96 44.8533 57.28Z" fill="black"/>
<path d="M47.3067 55.6267L47.9467 56.5867L48.9067 55.8933L48.2667 54.9333L47.3067 55.6267Z" fill="black"/>
<path d="M49.1201 49.7067L48.9067 51.52L49.9201 51.68L50.0267 50.9333L52.2134 53.12L53.0667 52.32L49.8134 49.0133L49.1201 49.7067Z" fill="black"/>
<path d="M55.36 47.3067C54.9867 47.04 54.56 46.9867 54.08 47.1467C54.08 46.72 53.8667 46.2933 53.5467 46.08C52.96 45.6533 52.2134 45.92 51.6267 46.6667C51.0934 47.4133 51.1467 48.16 51.7867 48.64C52.1067 48.8533 52.5334 48.9067 52.9067 48.8C52.8534 49.28 53.0134 49.6533 53.3867 49.92C53.6534 50.1333 53.92 50.1867 54.1867 50.1867C54.6667 50.1867 55.0934 49.92 55.52 49.3867C55.84 48.96 56 48.5333 55.9467 48.1067C55.8934 47.84 55.68 47.5733 55.36 47.3067ZM53.1734 47.6267C53.0134 47.7333 52.8534 47.84 52.6934 47.84C52.64 47.84 52.5334 47.84 52.48 47.7867C52.2667 47.6267 52.3734 47.36 52.48 47.2C52.5334 47.0933 52.64 47.04 52.7467 47.04C52.8 47.04 52.9067 47.0933 53.0134 47.1467C53.1734 47.2533 53.2267 47.4667 53.1734 47.6267ZM54.7734 48.9067C54.6134 49.12 54.3467 49.1733 54.1334 49.0133C53.9734 48.8533 53.8667 48.6933 53.92 48.3733C54.24 48.16 54.5067 48.1067 54.72 48.2667C54.8267 48.32 54.88 48.4267 54.88 48.5333C54.88 48.64 54.8267 48.8 54.7734 48.9067Z" fill="black"/>
<path d="M57.44 42.8267C56.64 42.4533 55.8934 42.6667 55.52 43.4133C55.4134 43.6267 55.36 43.84 55.4134 44.0533C55.1467 43.84 54.88 43.4667 55.0934 42.9867C55.2 42.7733 55.36 42.6133 55.52 42.4533L55.68 42.3467L54.8267 41.76L54.72 41.8667C54.5067 42.08 54.2934 42.3467 54.1334 42.6667C53.92 43.1467 53.8667 43.5733 54.0267 44C54.2934 44.7467 55.04 45.28 55.6267 45.5467C56.16 45.8133 56.5867 45.92 56.96 45.92C57.5467 45.92 57.9734 45.6533 58.2934 45.0667C58.72 44.1067 58.4 43.3067 57.44 42.8267ZM57.44 44.5333C57.3867 44.6933 57.2267 44.7467 57.0667 44.7467C56.96 44.7467 56.8 44.6933 56.6934 44.64C56.48 44.5333 56.32 44.3733 56.2667 44.2667C56.2134 44.16 56.2667 44.1067 56.2667 44C56.32 43.84 56.4267 43.7867 56.64 43.7867C56.7467 43.7867 56.9067 43.84 57.0667 43.8933C57.28 44 57.3867 44.1067 57.44 44.2667C57.4934 44.3733 57.44 44.48 57.44 44.5333Z" fill="black"/>
<path d="M59.0934 38.1333C58.1867 37.8667 57.44 38.2933 57.1734 39.1467C57.1734 39.2533 57.12 39.3067 57.12 39.36L56.5867 39.2L57.0667 37.6L56.16 37.3333L55.36 40L57.92 40.8V40.5867C57.92 40.32 57.9734 40.1067 58.0267 39.84C58.08 39.6267 58.3467 39.0933 58.8267 39.2C59.36 39.36 59.2534 39.9467 59.2 40.1067C59.0934 40.4267 58.9334 40.64 58.7734 40.8533L58.6134 41.0133L59.68 41.3867L59.7334 41.28C59.8934 40.96 60.0534 40.5867 60.16 40.32C60.32 39.7867 60.32 39.3067 60.1067 38.88C59.8934 38.56 59.52 38.2933 59.0934 38.1333Z" fill="black"/>
<path d="M8.69336 32C8.69336 44.8 19.0934 55.2533 31.8934 55.2533C44.6934 55.2533 55.0934 44.8533 55.0934 32C55.0934 19.2 44.6934 8.8 31.8934 8.8C19.1467 8.74667 8.69336 19.2 8.69336 32ZM31.9467 9.54667C44.32 9.54667 54.3467 19.6267 54.3467 31.9467C54.3467 44.32 44.2667 54.3467 31.9467 54.3467C19.5734 54.3467 9.54669 44.2667 9.54669 31.9467C9.49336 19.6267 19.5734 9.54667 31.9467 9.54667Z" fill="black"/>
<path d="M31.9467 0.213333C14.4 0.213333 0.160034 14.4533 0.160034 32C0.160034 49.4933 14.4 63.7867 31.9467 63.7867C49.44 63.7867 63.7334 49.5467 63.7334 32C63.68 14.4533 49.44 0.213333 31.9467 0.213333ZM31.9467 62.9333C14.88 62.9333 1.01337 49.0667 1.01337 32C1.01337 14.9333 14.88 1.06667 31.9467 1.06667C49.0134 1.06667 62.88 14.9333 62.88 32C62.88 49.0667 49.0134 62.9333 31.9467 62.9333Z" fill="black"/>
</svg>
