<svg width="64" height="64" viewBox="0 0 64 64" fill="none" xmlns="http://www.w3.org/2000/svg">
<path d="M32 45.5C32 49.0898 29.0899 52 25.5 52C21.9101 52 19 49.0898 19 45.5C19 41.9101 21.9101 39 25.5 39C27.3434 39 32 39 32 39C32 39 32 43.7535 32 45.5Z" fill="black"/>
<path d="M32 32.5C32 34.3433 32 39 32 39C32 39 27.2465 39 25.5 39C21.9101 39 19 36.0898 19 32.5C19 28.9101 21.9101 26 25.5 26C27.3434 26 32 26 32 26C32 26 32 30.7535 32 32.5Z" fill="black"/>
<path d="M32 19.5C32 21.3434 32 26 32 26C32 26 27.2465 26 25.5 26C21.9101 26 19 23.0899 19 19.5C19 15.9101 21.9101 13 25.5 13C27.3434 13 32 13 32 13C32 13 32 17.7535 32 19.5Z" fill="black"/>
<circle cx="38.5" cy="32.5" r="6.5" fill="black"/>
<path d="M44.9999 19.5C44.9999 23.0899 42.0898 26 38.4999 26C36.9205 26 31.9999 26 31.9999 26C31.9999 26 31.9999 21.5105 31.9999 19.5C31.9999 17.4896 31.9999 13 31.9999 13C31.9999 13 36.9205 13 38.4999 13C42.0898 13 44.9999 15.9102 44.9999 19.5Z" fill="black"/>
</svg>
