<svg width="64" height="64" viewBox="0 0 64 64" fill="none" xmlns="http://www.w3.org/2000/svg">
<path d="M26.8867 60.5099L8.48482 21.6766L38.2844 11.4768L56.6863 50.3101L26.8867 60.5099Z" fill="white" stroke="black" stroke-width="0.5"/>
<path d="M26.7266 59.9606L8.53195 21.7305L36.9663 11.1426L55.161 49.3727L26.7266 59.9606Z" fill="#D9D9D9" stroke="black" stroke-width="0.5"/>
<path d="M27.2453 60.0991L8.84529 21.928L35.7647 9.45406L54.1647 47.6251L27.2453 60.0991Z" fill="#D9D9D9" stroke="black" stroke-width="0.5"/>
<path d="M27.2374 60.0826L8.83782 21.9125L34.3901 7.78762L52.7896 45.9577L27.2374 60.0826Z" fill="#D9D9D9" stroke="black" stroke-width="0.5"/>
<path d="M27.2273 60.0617L8.82967 21.8956L32.7711 5.92502L51.1687 44.0911L27.2273 60.0617Z" fill="#D9D9D9" stroke="black" stroke-width="0.5"/>
<path d="M26.8472 60.4265L8.44977 21.6026L30.5482 3.97618L48.9457 42.8001L26.8472 60.4265Z" fill="white" stroke="black" stroke-width="0.5"/>
</svg>
