<svg width="64" height="64" viewBox="0 0 64 64" fill="none" xmlns="http://www.w3.org/2000/svg">
<path d="M56.5 32.0167C56.5 33.0212 56.0251 34.1084 54.896 35.2378C53.7609 36.3732 52.0429 37.4646 49.8003 38.4134C45.321 40.3085 39.0286 41.5167 32 41.5167C24.9714 41.5167 18.679 40.3085 14.1997 38.4134C11.9571 37.4646 10.2391 36.3732 9.10401 35.2378C7.97486 34.1084 7.5 33.0212 7.5 32.0167C7.5 31.0121 7.97486 29.9249 9.10401 28.7955C10.2391 27.6601 11.9571 26.5687 14.1997 25.6199C18.679 23.7249 24.9714 22.5167 32 22.5167C39.0286 22.5167 45.321 23.7249 49.8003 25.6199C52.0429 26.5687 53.7609 27.6601 54.896 28.7955C56.0251 29.9249 56.5 31.0121 56.5 32.0167Z" stroke="black" stroke-width="3"/>
<path d="M44.25 10.799C45.12 11.3013 45.824 12.2561 46.2376 13.7987C46.6533 15.3494 46.7395 17.383 46.4399 19.7995C45.8414 24.6262 43.7415 30.6797 40.2272 36.7667C36.7129 42.8536 32.5204 47.6989 28.6395 50.6306C26.6966 52.0983 24.8924 53.0405 23.3416 53.4558C21.7989 53.8689 20.62 53.7366 19.75 53.2343C18.88 52.732 18.1759 51.7772 17.7624 50.2346C17.3466 48.6839 17.2605 46.6504 17.5601 44.2338C18.1585 39.4071 20.2584 33.3536 23.7727 27.2667C27.287 21.1797 31.4796 16.3344 35.3604 13.4028C37.3034 11.935 39.1076 10.9929 40.6583 10.5776C42.2011 10.1644 43.38 10.2967 44.25 10.799Z" stroke="black" stroke-width="3"/>
<path d="M19.75 10.799C20.62 10.2968 21.7989 10.1644 23.3416 10.5776C24.8924 10.9929 26.6966 11.935 28.6395 13.4028C32.5204 16.3344 36.7129 21.1797 40.2272 27.2667C43.7415 33.3536 45.8414 39.4071 46.4399 44.2338C46.7395 46.6504 46.6533 48.6839 46.2376 50.2346C45.824 51.7772 45.12 52.732 44.25 53.2343C43.38 53.7366 42.2011 53.8689 40.6583 53.4558C39.1076 53.0405 37.3034 52.0983 35.3604 50.6306C31.4796 47.6989 27.287 42.8536 23.7727 36.7667C20.2584 30.6797 18.1585 24.6262 17.5601 19.7995C17.2605 17.383 17.3466 15.3494 17.7624 13.7987C18.1759 12.2561 18.88 11.3013 19.75 10.799Z" stroke="black" stroke-width="3"/>
<circle cx="32" cy="32.0167" r="5" fill="black"/>
</svg>
