<svg width="64" height="64" viewBox="0 0 64 64" fill="none" xmlns="http://www.w3.org/2000/svg">
<circle cx="32" cy="32" r="32" fill="black"/>
<path d="M47.0084 24.7941C47.0314 25.1238 47.0314 25.4536 47.0314 25.7864C47.0314 35.9267 39.2476 47.6216 25.0144 47.6216V47.6155C20.8099 47.6216 16.6927 46.4272 13.1532 44.1751C13.7646 44.2481 14.379 44.2846 14.995 44.2861C18.4793 44.2891 21.8641 43.1297 24.6053 40.9946C21.2941 40.9323 18.3905 38.7912 17.3761 35.6653C18.536 35.8872 19.7312 35.8416 20.8697 35.5331C17.2597 34.8098 14.6625 31.6642 14.6625 28.0111C14.6625 27.9776 14.6625 27.9457 14.6625 27.9138C15.7381 28.508 16.9425 28.8377 18.1744 28.8742C14.7743 26.6206 13.7263 22.1348 15.7795 18.6275C19.7082 23.4219 25.5047 26.3365 31.7272 26.6449C31.1036 23.9796 31.9555 21.1865 33.9659 19.3128C37.0825 16.4074 41.9842 16.5563 44.9138 19.6456C46.6468 19.3068 48.3078 18.6761 49.8278 17.7826C49.2501 19.559 48.0412 21.068 46.4262 22.0269C47.96 21.8475 49.4585 21.4403 50.8697 20.8188C49.8309 22.3627 48.5223 23.7075 47.0084 24.7941Z" fill="white"/>
</svg>
