<svg width="11" height="14" viewBox="0 0 11 14" fill="none" xmlns="http://www.w3.org/2000/svg">
<mask id="path-1-inside-1" fill="white">
<path fill-rule="evenodd" clip-rule="evenodd" d="M3.65504 0H3.42119V0.231265V6.77597C1.51161 6.89489 0 8.46424 0 10.3827V13.7687V14H0.233852H3.65607H3.88992V13.7687V7.23127H7.07726C9.09651 7.23127 10.7333 5.61254 10.7333 3.61563C10.7333 1.61872 9.09651 0 7.07726 0H3.65504ZM3.88992 6.76873L7.07726 6.76874C8.8382 6.76874 10.2656 5.35709 10.2656 3.61563C10.2656 1.87417 8.8382 0.46253 7.07726 0.46253H3.88889V6.76874L3.88992 6.76873ZM0.467703 10.3827C0.467703 8.71943 1.77068 7.35709 3.42222 7.2395V13.5375H0.467703V10.3827Z"/>
</mask>
<path fill-rule="evenodd" clip-rule="evenodd" d="M3.65504 0H3.42119V0.231265V6.77597C1.51161 6.89489 0 8.46424 0 10.3827V13.7687V14H0.233852H3.65607H3.88992V13.7687V7.23127H7.07726C9.09651 7.23127 10.7333 5.61254 10.7333 3.61563C10.7333 1.61872 9.09651 0 7.07726 0H3.65504ZM3.88992 6.76873L7.07726 6.76874C8.8382 6.76874 10.2656 5.35709 10.2656 3.61563C10.2656 1.87417 8.8382 0.46253 7.07726 0.46253H3.88889V6.76874L3.88992 6.76873ZM0.467703 10.3827C0.467703 8.71943 1.77068 7.35709 3.42222 7.2395V13.5375H0.467703V10.3827Z" fill="#333333"/>
<path d="M3.42119 0V-0.5H2.92119V0H3.42119ZM3.42119 6.77597L3.45227 7.27501L3.92119 7.2458V6.77597H3.42119ZM0 14H-0.5V14.5H0V14ZM3.88992 14V14.5H4.38992V14H3.88992ZM3.88992 7.23127V6.73127H3.38992V7.23127H3.88992ZM3.88992 6.76873L3.88992 6.26873L3.88911 6.26873L3.88992 6.76873ZM7.07726 6.76874L7.07726 7.26874H7.07726V6.76874ZM3.88889 0.46253V-0.0374698H3.38889V0.46253H3.88889ZM3.88889 6.76874H3.38889V7.26955L3.8897 7.26873L3.88889 6.76874ZM3.42222 7.2395H3.92222V6.70263L3.38671 6.74076L3.42222 7.2395ZM3.42222 13.5375V14.0375H3.92222V13.5375H3.42222ZM0.467703 13.5375H-0.0322965V14.0375H0.467703V13.5375ZM3.42119 0.5H3.65504V-0.5H3.42119V0.5ZM3.92119 0.231265V0H2.92119V0.231265H3.92119ZM3.92119 6.77597V0.231265H2.92119V6.77597H3.92119ZM0.5 10.3827C0.5 8.73473 1.7998 7.37791 3.45227 7.27501L3.39011 6.27694C1.22342 6.41187 -0.5 8.19375 -0.5 10.3827H0.5ZM0.5 13.7687V10.3827H-0.5V13.7687H0.5ZM0.5 14V13.7687H-0.5V14H0.5ZM0.233852 13.5H0V14.5H0.233852V13.5ZM3.65607 13.5H0.233852V14.5H3.65607V13.5ZM3.88992 13.5H3.65607V14.5H3.88992V13.5ZM3.38992 13.7687V14H4.38992V13.7687H3.38992ZM3.38992 7.23127V13.7687H4.38992V7.23127H3.38992ZM7.07726 6.73127H3.88992V7.73127H7.07726V6.73127ZM10.2333 3.61563C10.2333 5.33117 8.82562 6.73127 7.07726 6.73127V7.73127C9.36739 7.73127 11.2333 5.89391 11.2333 3.61563H10.2333ZM7.07726 0.5C8.82562 0.5 10.2333 1.90009 10.2333 3.61563H11.2333C11.2333 1.33735 9.36739 -0.5 7.07726 -0.5V0.5ZM3.65504 0.5H7.07726V-0.5H3.65504V0.5ZM3.88992 7.26873L7.07726 7.26874L7.07726 6.26874L3.88992 6.26873L3.88992 7.26873ZM7.07726 7.26874C9.10909 7.26874 10.7656 5.63847 10.7656 3.61563H9.76563C9.76563 5.07572 8.56732 6.26874 7.07726 6.26874V7.26874ZM10.7656 3.61563C10.7656 1.5928 9.10909 -0.0374698 7.07726 -0.0374698V0.96253C8.56732 0.96253 9.76563 2.15554 9.76563 3.61563H10.7656ZM7.07726 -0.0374698H3.88889V0.96253H7.07726V-0.0374698ZM3.38889 0.46253V6.76874H4.38889V0.46253H3.38889ZM3.8897 7.26873L3.89073 7.26873L3.88911 6.26873L3.88808 6.26874L3.8897 7.26873ZM3.38671 6.74076C1.48008 6.87652 -0.0322965 8.4505 -0.0322965 10.3827H0.967703C0.967703 8.98837 2.06128 7.83766 3.45773 7.73824L3.38671 6.74076ZM3.92222 13.5375V7.2395H2.92222V13.5375H3.92222ZM0.467703 14.0375H3.42222V13.0375H0.467703V14.0375ZM-0.0322965 10.3827V13.5375H0.967703V10.3827H-0.0322965Z" fill="#333333" mask="url(#path-1-inside-1)"/>
</svg>
