<svg width="64" height="64" viewBox="0 0 64 64" fill="none" xmlns="http://www.w3.org/2000/svg">
<path d="M16.9688 10H46.0312C50.4375 10 54 13.5726 54 17.9915V46.0085C54 50.4274 50.4375 54 46.0312 54H16.9688C12.5625 54 9 50.4274 9 46.0085V17.9915C9 13.5726 12.5625 10 16.9688 10Z" fill="#151515"/>
<path d="M27.075 36.3248H20.1L18.675 40.7624C18.6375 40.9316 18.4875 41.0444 18.3187 41.0256H14.7937C14.5875 41.0256 14.5312 40.9128 14.5875 40.6872L20.625 23.3316C20.6812 23.1436 20.7375 22.9744 20.8125 22.7487C20.8875 22.3538 20.925 21.9402 20.925 21.5265C20.9062 21.4325 20.9812 21.3385 21.075 21.3197C21.0937 21.3197 21.1125 21.3197 21.1312 21.3197H25.9312C26.0625 21.3197 26.1562 21.3761 26.175 21.4701L33.0187 40.7436C33.075 40.9504 33.0187 41.0444 32.8312 41.0444H28.9125C28.7812 41.0633 28.65 40.9692 28.6125 40.8376L27.075 36.3248ZM21.1875 32.5829H25.95C25.8375 32.188 25.6875 31.7179 25.5187 31.2291C25.35 30.7214 25.1812 30.1761 25.0125 29.612C24.825 29.0291 24.6562 28.465 24.4687 27.8821C24.2812 27.2991 24.1125 26.7538 23.9625 26.2085C23.8125 25.682 23.6812 25.1932 23.55 24.7419H23.5125C23.3437 25.5504 23.1375 26.359 22.875 27.1675C22.5937 28.0701 22.3125 29.0103 22.0125 29.9504C21.7687 30.9094 21.4687 31.7932 21.1875 32.5829Z" fill="#C9C9C9"/>
<path d="M44.1375 34.5949H38.1937C38.2687 35.1778 38.4562 35.7607 38.775 36.2684C39.1125 36.7761 39.5812 37.1709 40.1437 37.3966C40.8937 37.7162 41.7187 37.8855 42.5437 37.8667C43.2 37.8479 43.8562 37.7915 44.4937 37.6598C45.075 37.5846 45.6375 37.4342 46.1625 37.2273C46.2562 37.1521 46.3125 37.1897 46.3125 37.3778V40.2547C46.3125 40.3299 46.2937 40.4051 46.275 40.4803C46.2375 40.5367 46.2 40.5744 46.1437 40.612C45.5437 40.8752 44.925 41.0632 44.2687 41.1761C43.3875 41.3453 42.5062 41.4205 41.6062 41.4017C40.1812 41.4017 38.9812 41.1761 38.0062 40.7436C37.0875 40.3487 36.2812 39.7282 35.6437 38.9573C35.0437 38.2239 34.6125 37.3966 34.35 36.494C34.0875 35.6103 33.9562 34.6889 33.9562 33.7487C33.9562 32.7333 34.1062 31.7368 34.425 30.759C34.725 29.8188 35.1937 28.9538 35.8312 28.1829C36.45 27.4308 37.2187 26.8291 38.1 26.3966C38.9812 25.9641 40.0312 25.8137 41.2312 25.8137C42.225 25.7949 43.2187 25.9829 44.1375 26.3966C44.9062 26.735 45.5812 27.2427 46.1062 27.9009C46.5937 28.5402 46.9875 29.2547 47.2312 30.0444C47.475 30.7966 47.5875 31.5675 47.5875 32.3385C47.5875 32.7897 47.5687 33.1846 47.55 33.5419C47.5125 33.8991 47.4937 34.1624 47.475 34.3316C47.4562 34.4632 47.3437 34.5761 47.2125 34.5761C47.1 34.5761 46.8937 34.5949 46.5937 34.6137C46.2937 34.6513 45.9375 34.6701 45.5062 34.6701C45.075 34.6701 44.625 34.5949 44.1375 34.5949ZM38.1937 31.8496H42.15C42.6375 31.8496 42.9937 31.8496 43.2187 31.8308C43.3687 31.812 43.5187 31.7744 43.65 31.6803V31.4923C43.65 31.2479 43.6125 31.0222 43.5375 30.7966C43.2 29.7436 42.2062 29.0291 41.1 29.0667C40.0687 29.0103 39.0937 29.5556 38.6062 30.4957C38.3812 30.9282 38.25 31.3795 38.1937 31.8496Z" fill="#C9C9C9"/>
</svg>
