<svg width="64" height="64" viewBox="0 0 64 64" fill="none" xmlns="http://www.w3.org/2000/svg">
<path d="M27 15C27 15 20.0196 16.8712 20.0196 17.4286C20.0196 17.9859 20.0196 26.1957 20.0196 27.1429C20.0196 29.3724 16.5927 30.5851 15 32C16.5927 33.1972 20.0196 34.0205 20.0196 36.25C20.0196 38.1868 20.0196 46.0141 20.0196 46.5714C20.0196 47.1288 27 49 27 49" stroke="black" stroke-width="5"/>
<path d="M37 49C37 49 43.9804 47.1288 43.9804 46.5714C43.9804 46.0141 43.9804 37.8043 43.9804 36.8571C43.9804 34.6276 47.4073 33.4149 49 32C47.4073 30.8028 43.9804 29.9795 43.9804 27.75C43.9804 25.8132 43.9804 17.9859 43.9804 17.4286C43.9804 16.8712 37 15 37 15" stroke="black" stroke-width="5"/>
</svg>
