<svg width="64" height="64" viewBox="0 0 64 64" fill="none" xmlns="http://www.w3.org/2000/svg">
<path d="M12 32L12 49C12 51.2091 13.7909 53 16 53L47.5 53C49.7091 53 51.5 51.2091 51.5 49L51.5 32" stroke="black" stroke-width="3"/>
<path d="M30.9393 40.0607C31.5251 40.6464 32.4749 40.6464 33.0607 40.0607L42.6066 30.5147C43.1924 29.9289 43.1924 28.9792 42.6066 28.3934C42.0208 27.8076 41.0711 27.8076 40.4853 28.3934L32 36.8787L23.5147 28.3934C22.9289 27.8076 21.9792 27.8076 21.3934 28.3934C20.8076 28.9792 20.8076 29.9289 21.3934 30.5147L30.9393 40.0607ZM30.5 7L30.5 39L33.5 39L33.5 7L30.5 7Z" fill="black"/>
</svg>
