<svg width="51" height="24" viewBox="0 0 51 24" fill="none" xmlns="http://www.w3.org/2000/svg">
<path d="M8 0.25H43C47.2802 0.25 50.75 3.71979 50.75 8V10.1404C50.75 14.4206 47.2802 17.8904 43 17.8904H22.6555C20.6781 17.8904 18.7752 18.604 17.2497 19.8533C15.9574 20.9116 14.3717 22.1675 13.1864 22.9691C12.585 23.3758 12.1161 23.6447 11.8457 23.7273C11.8453 23.7274 11.8449 23.7275 11.8445 23.7276C11.8499 23.7116 11.8564 23.6939 11.8641 23.6743C12.4661 22.1488 12.0354 20.6892 11.0615 19.6251C10.0928 18.5667 8.58243 17.8904 6.98474 17.8904H6.26316C2.94218 17.8904 0.25 15.1983 0.25 11.8773V8C0.25 3.71979 3.71979 0.25 8 0.25Z" fill="white" stroke="black" stroke-width="0.5"/>
<path d="M8.82031 12H8.04688V9.15234H5.37109V12H4.59766V6.18359H5.37109V8.46484H8.04688V6.18359H8.82031V12ZM11.8398 12.1016C11.1445 12.1016 10.6042 11.9062 10.2188 11.5156C9.83594 11.1224 9.64453 10.5651 9.64453 9.84375C9.64453 9.13281 9.83073 8.56771 10.2031 8.14844C10.5755 7.72656 11.0625 7.51562 11.6641 7.51562C11.9349 7.51562 12.1745 7.55469 12.3828 7.63281C12.5911 7.71094 12.7734 7.83333 12.9297 8C13.0859 8.16667 13.2057 8.37109 13.2891 8.61328C13.3724 8.85286 13.4141 9.14714 13.4141 9.49609V9.89453H10.3906C10.3906 10.4023 10.5182 10.7904 10.7734 11.0586C11.0286 11.3268 11.3815 11.4609 11.832 11.4609C11.9935 11.4609 12.151 11.4427 12.3047 11.4062C12.4609 11.3698 12.6016 11.3229 12.7266 11.2656C12.8594 11.2057 12.9714 11.1484 13.0625 11.0938C13.1536 11.0365 13.2292 10.9831 13.2891 10.9336H13.332V11.7344C13.2461 11.7682 13.1393 11.8112 13.0117 11.8633C12.8841 11.9128 12.7695 11.9518 12.668 11.9805C12.5247 12.0195 12.3945 12.0495 12.2773 12.0703C12.1628 12.0911 12.0169 12.1016 11.8398 12.1016ZM12.6992 9.33203C12.694 9.13411 12.6706 8.96354 12.6289 8.82031C12.5872 8.67708 12.5273 8.55599 12.4492 8.45703C12.3633 8.34766 12.2526 8.26432 12.1172 8.20703C11.9844 8.14974 11.819 8.12109 11.6211 8.12109C11.4258 8.12109 11.2591 8.15104 11.1211 8.21094C10.9857 8.26823 10.862 8.35286 10.75 8.46484C10.6406 8.57943 10.5573 8.70703 10.5 8.84766C10.4427 8.98568 10.4062 9.14714 10.3906 9.33203H12.6992ZM17.5859 7.63672L15.2383 13.6094H14.4531L15.2344 11.7891L13.6484 7.63672H14.4414L15.6328 10.8672L16.8203 7.63672H17.5859ZM21.9609 12.0859C21.5599 12.0859 21.2474 11.9727 21.0234 11.7461C20.7995 11.5169 20.6875 11.1562 20.6875 10.6641V8.24609H20.1914V7.63672H20.6875V6.38281H21.4219V7.63672H22.7734V8.24609H21.4219V10.3203C21.4219 10.5417 21.4258 10.7122 21.4336 10.832C21.4414 10.9518 21.4714 11.0638 21.5234 11.168C21.5677 11.2591 21.6393 11.3281 21.7383 11.375C21.8372 11.4193 21.9714 11.4414 22.1406 11.4414C22.2604 11.4414 22.3763 11.4245 22.4883 11.3906C22.6003 11.3542 22.681 11.3242 22.7305 11.3008H22.7734V11.9609C22.6354 12 22.4948 12.0299 22.3516 12.0508C22.2109 12.0742 22.0807 12.0859 21.9609 12.0859ZM26.75 12H26.0156V9.51562C26.0156 9.3151 26.0052 9.12891 25.9844 8.95703C25.9661 8.78255 25.9297 8.64323 25.875 8.53906C25.8151 8.42969 25.7318 8.34896 25.625 8.29688C25.5182 8.24219 25.3724 8.21484 25.1875 8.21484C25.0052 8.21484 24.8164 8.26432 24.6211 8.36328C24.4284 8.45964 24.2396 8.58594 24.0547 8.74219V12H23.3203V5.92188H24.0547V8.12109C24.2734 7.92578 24.4896 7.77604 24.7031 7.67188C24.9167 7.56771 25.1419 7.51562 25.3789 7.51562C25.8086 7.51562 26.1445 7.65755 26.3867 7.94141C26.6289 8.22266 26.75 8.63151 26.75 9.16797V12ZM29.6758 12.1016C28.9805 12.1016 28.4401 11.9062 28.0547 11.5156C27.6719 11.1224 27.4805 10.5651 27.4805 9.84375C27.4805 9.13281 27.6667 8.56771 28.0391 8.14844C28.4115 7.72656 28.8984 7.51562 29.5 7.51562C29.7708 7.51562 30.0104 7.55469 30.2188 7.63281C30.4271 7.71094 30.6094 7.83333 30.7656 8C30.9219 8.16667 31.0417 8.37109 31.125 8.61328C31.2083 8.85286 31.25 9.14714 31.25 9.49609V9.89453H28.2266C28.2266 10.4023 28.3542 10.7904 28.6094 11.0586C28.8646 11.3268 29.2174 11.4609 29.668 11.4609C29.8294 11.4609 29.987 11.4427 30.1406 11.4062C30.2969 11.3698 30.4375 11.3229 30.5625 11.2656C30.6953 11.2057 30.8073 11.1484 30.8984 11.0938C30.9896 11.0365 31.0651 10.9831 31.125 10.9336H31.168V11.7344C31.082 11.7682 30.9753 11.8112 30.8477 11.8633C30.7201 11.9128 30.6055 11.9518 30.5039 11.9805C30.3607 12.0195 30.2305 12.0495 30.1133 12.0703C29.9987 12.0911 29.8529 12.1016 29.6758 12.1016ZM30.5352 9.33203C30.5299 9.13411 30.5065 8.96354 30.4648 8.82031C30.4232 8.67708 30.3633 8.55599 30.2852 8.45703C30.1992 8.34766 30.0885 8.26432 29.9531 8.20703C29.8203 8.14974 29.6549 8.12109 29.457 8.12109C29.2617 8.12109 29.0951 8.15104 28.957 8.21094C28.8216 8.26823 28.6979 8.35286 28.5859 8.46484C28.4766 8.57943 28.3932 8.70703 28.3359 8.84766C28.2786 8.98568 28.2422 9.14714 28.2266 9.33203H30.5352ZM34.3047 8.42578H34.2656C34.2109 8.41016 34.1523 8.40104 34.0898 8.39844C34.0299 8.39323 33.957 8.39062 33.8711 8.39062C33.6732 8.39062 33.4766 8.43359 33.2812 8.51953C33.0859 8.60547 32.901 8.73307 32.7266 8.90234V12H31.9922V7.63672H32.7266V8.28516C32.9948 8.04818 33.2279 7.88151 33.4258 7.78516C33.6263 7.6862 33.8203 7.63672 34.0078 7.63672C34.0833 7.63672 34.1393 7.63932 34.1758 7.64453C34.2148 7.64714 34.2578 7.65234 34.3047 7.66016V8.42578ZM36.7305 12.1016C36.0352 12.1016 35.4948 11.9062 35.1094 11.5156C34.7266 11.1224 34.5352 10.5651 34.5352 9.84375C34.5352 9.13281 34.7214 8.56771 35.0938 8.14844C35.4661 7.72656 35.9531 7.51562 36.5547 7.51562C36.8255 7.51562 37.0651 7.55469 37.2734 7.63281C37.4818 7.71094 37.6641 7.83333 37.8203 8C37.9766 8.16667 38.0964 8.37109 38.1797 8.61328C38.263 8.85286 38.3047 9.14714 38.3047 9.49609V9.89453H35.2812C35.2812 10.4023 35.4089 10.7904 35.6641 11.0586C35.9193 11.3268 36.2721 11.4609 36.7227 11.4609C36.8841 11.4609 37.0417 11.4427 37.1953 11.4062C37.3516 11.3698 37.4922 11.3229 37.6172 11.2656C37.75 11.2057 37.862 11.1484 37.9531 11.0938C38.0443 11.0365 38.1198 10.9831 38.1797 10.9336H38.2227V11.7344C38.1367 11.7682 38.0299 11.8112 37.9023 11.8633C37.7747 11.9128 37.6602 11.9518 37.5586 11.9805C37.4154 12.0195 37.2852 12.0495 37.168 12.0703C37.0534 12.0911 36.9076 12.1016 36.7305 12.1016ZM37.5898 9.33203C37.5846 9.13411 37.5612 8.96354 37.5195 8.82031C37.4779 8.67708 37.418 8.55599 37.3398 8.45703C37.2539 8.34766 37.1432 8.26432 37.0078 8.20703C36.875 8.14974 36.7096 8.12109 36.5117 8.12109C36.3164 8.12109 36.1497 8.15104 36.0117 8.21094C35.8763 8.26823 35.7526 8.35286 35.6406 8.46484C35.5312 8.57943 35.4479 8.70703 35.3906 8.84766C35.3333 8.98568 35.2969 9.14714 35.2812 9.33203H37.5898ZM43.8125 8.37891C43.8073 8.64453 43.7799 8.90104 43.7305 9.14844C43.681 9.39323 43.6029 9.61328 43.4961 9.80859C43.3893 9.9987 43.2565 10.1536 43.0977 10.2734C42.9388 10.3932 42.7318 10.4531 42.4766 10.4531C42.3281 10.4531 42.194 10.4336 42.0742 10.3945C41.957 10.3529 41.8529 10.2995 41.7617 10.2344C41.6706 10.1693 41.5833 10.0911 41.5 10C41.4167 9.90885 41.3424 9.82422 41.2773 9.74609C41.207 9.66016 41.138 9.57292 41.0703 9.48438C41.0026 9.39583 40.9362 9.31771 40.8711 9.25C40.8008 9.17708 40.7279 9.11849 40.6523 9.07422C40.5768 9.02995 40.4909 9.00781 40.3945 9.00781C40.2643 9.00781 40.1562 9.04297 40.0703 9.11328C39.9844 9.18099 39.9128 9.28255 39.8555 9.41797C39.8008 9.54818 39.7617 9.70443 39.7383 9.88672C39.7174 10.069 39.7031 10.2591 39.6953 10.457H39.0391C39.0443 10.1862 39.0716 9.92708 39.1211 9.67969C39.1732 9.43229 39.25 9.21484 39.3516 9.02734C39.4557 8.82943 39.5938 8.67318 39.7656 8.55859C39.9375 8.44141 40.1406 8.38281 40.375 8.38281C40.5312 8.38281 40.668 8.40365 40.7852 8.44531C40.9049 8.48698 41.0104 8.54036 41.1016 8.60547C41.1927 8.67057 41.276 8.74479 41.3516 8.82812C41.4297 8.91146 41.5052 8.9987 41.5781 9.08984C41.6354 9.16016 41.7031 9.24609 41.7812 9.34766C41.862 9.44922 41.9297 9.52865 41.9844 9.58594C42.0599 9.66406 42.1354 9.72396 42.2109 9.76562C42.2891 9.80729 42.3711 9.82812 42.457 9.82812C42.5872 9.82812 42.6966 9.79167 42.7852 9.71875C42.8763 9.64583 42.9466 9.54688 42.9961 9.42188C43.0482 9.29167 43.0859 9.13932 43.1094 8.96484C43.1354 8.78776 43.151 8.59245 43.1562 8.37891H43.8125ZM46.1016 6.18359L45.9922 10.3984H45.3438L45.2266 6.18359H46.1016ZM46.0625 12H45.2656V11.1758H46.0625V12Z" fill="black"/>
</svg>
