<svg width="64" height="64" viewBox="0 0 64 64" fill="none" xmlns="http://www.w3.org/2000/svg">
<path d="M52 18C52 18 46.7647 19.541 46.7647 20C46.7647 20.459 46.7647 27.22 46.7647 28C46.7647 29.8361 44.1945 30.8348 43 32C44.1945 32.9859 46.7647 33.6639 46.7647 35.5C46.7647 37.095 46.7647 43.541 46.7647 44C46.7647 44.459 52 46 52 46" stroke="black" stroke-width="5"/>
<path d="M20 17C20 17 12 21.4615 12 31.5C12 41.5385 20 46 20 46" stroke="black" stroke-width="5"/>
<path d="M26 46C26 46 34 41.5385 34 31.5C34 21.4615 26 17 26 17" stroke="black" stroke-width="5"/>
</svg>
