<svg width="64" height="64" viewBox="0 0 64 64" fill="none" xmlns="http://www.w3.org/2000/svg">
<path d="M39 37.68C39 39.1733 38.6 40.5333 37.8 41.76C37.0267 42.96 35.8267 43.7467 34.2 44.12V49.36H31.12V44.32C30.1067 44.2133 29.16 44.0133 28.28 43.72C27.4267 43.4 26.7333 43.0267 26.2 42.6L27.2 39.92C27.8133 40.3467 28.52 40.7067 29.32 41C30.12 41.2667 30.9733 41.4 31.88 41.4C33.0533 41.4 33.92 41.0667 34.48 40.4C35.04 39.7067 35.32 38.8133 35.32 37.72C35.32 37.08 35.2133 36.5067 35 36C34.8133 35.4933 34.5467 35.04 34.2 34.64C33.8533 34.24 33.4533 33.88 33 33.56C32.5733 33.2133 32.12 32.88 31.64 32.56C31.0267 32.16 30.4133 31.7467 29.8 31.32C29.2133 30.8933 28.68 30.4 28.2 29.84C27.72 29.2533 27.32 28.5867 27 27.84C26.7067 27.0667 26.56 26.1467 26.56 25.08C26.56 24.4133 26.6533 23.7467 26.84 23.08C27.0533 22.3867 27.3467 21.76 27.72 21.2C28.12 20.6133 28.6 20.1067 29.16 19.68C29.72 19.2267 30.3733 18.8933 31.12 18.68V13.96H34.2V18.4C34.92 18.48 35.6 18.6267 36.24 18.84C36.9067 19.0267 37.5067 19.2667 38.04 19.56L37.08 22.28C36.5467 21.9867 35.9867 21.7467 35.4 21.56C34.8133 21.3467 34.2133 21.24 33.6 21.24C32.64 21.24 31.8267 21.5467 31.16 22.16C30.52 22.7733 30.2 23.7467 30.2 25.08C30.2 25.72 30.32 26.28 30.56 26.76C30.8 27.24 31.12 27.68 31.52 28.08C31.92 28.48 32.3733 28.8533 32.88 29.2C33.4133 29.52 33.9467 29.8667 34.48 30.24C35.04 30.64 35.5867 31.0533 36.12 31.48C36.68 31.9067 37.1733 32.4133 37.6 33C38.0267 33.56 38.36 34.2267 38.6 35C38.8667 35.7467 39 36.64 39 37.68Z" fill="black"/>
<path d="M37.8 41.76L36.9624 41.2137L36.9594 41.2183L37.8 41.76ZM34.2 44.12L33.9763 43.1453L33.2 43.3235V44.12H34.2ZM34.2 49.36V50.36H35.2V49.36H34.2ZM31.12 49.36H30.12V50.36H31.12V49.36ZM31.12 44.32H32.12V43.4197L31.2247 43.3255L31.12 44.32ZM28.28 43.72L27.9289 44.6563L27.9462 44.6628L27.9638 44.6687L28.28 43.72ZM26.2 42.6L25.2631 42.2504L25.01 42.9286L25.5753 43.3809L26.2 42.6ZM27.2 39.92L27.7711 39.0991L26.7135 38.3634L26.2631 39.5704L27.2 39.92ZM29.32 41L28.9757 41.9389L28.9897 41.944L29.0038 41.9487L29.32 41ZM34.48 40.4L35.2457 41.0432L35.2519 41.0358L35.2579 41.0283L34.48 40.4ZM35 36L34.0617 36.3457L34.0695 36.3671L34.0784 36.3881L35 36ZM34.2 34.64L34.9557 33.9851L34.9557 33.9851L34.2 34.64ZM33 33.56L32.3694 34.3361L32.3957 34.3575L32.4233 34.377L33 33.56ZM31.64 32.56L32.1947 31.7279L32.1863 31.7224L31.64 32.56ZM29.8 31.32L29.2118 32.1287L29.2203 32.1349L29.2289 32.1409L29.8 31.32ZM28.2 29.84L27.426 30.4732L27.4333 30.4821L27.4407 30.4908L28.2 29.84ZM27 27.84L26.065 28.1947L26.0725 28.2145L26.0809 28.2339L27 27.84ZM26.84 23.08L25.8842 22.7859L25.8805 22.7981L25.877 22.8104L26.84 23.08ZM27.72 21.2L26.8937 20.6366L26.8879 20.6453L27.72 21.2ZM29.16 19.68L29.766 20.4754L29.7778 20.4665L29.7892 20.4572L29.16 19.68ZM31.12 18.68L31.3947 19.6415L32.12 19.4343V18.68H31.12ZM31.12 13.96V12.96H30.12V13.96H31.12ZM34.2 13.96H35.2V12.96H34.2V13.96ZM34.2 18.4H33.2V19.295L34.0896 19.3939L34.2 18.4ZM36.24 18.84L35.9238 19.7887L35.9469 19.7964L35.9704 19.803L36.24 18.84ZM38.04 19.56L38.983 19.8928L39.2654 19.0927L38.5219 18.6838L38.04 19.56ZM37.08 22.28L36.5981 23.1562L37.6307 23.7242L38.023 22.6128L37.08 22.28ZM35.4 21.56L35.0583 22.4998L35.0774 22.5068L35.0968 22.5129L35.4 21.56ZM31.16 22.16L30.4829 21.4241L30.4754 21.431L30.4681 21.438L31.16 22.16ZM31.52 28.08L30.8129 28.7871L30.8129 28.7871L31.52 28.08ZM32.88 29.2L32.3153 30.0253L32.3399 30.0421L32.3655 30.0575L32.88 29.2ZM34.48 30.24L35.0613 29.4262L35.0535 29.4208L34.48 30.24ZM36.12 31.48L35.4953 32.2609L35.5045 32.2683L35.514 32.2754L36.12 31.48ZM37.6 33L36.7913 33.5882L36.7978 33.5972L36.8046 33.606L37.6 33ZM38.6 35L37.6449 35.2964L37.6512 35.3165L37.6583 35.3363L38.6 35ZM38 37.68C38 38.9834 37.6542 40.1529 36.9624 41.2137L38.6376 42.3063C39.5458 40.9138 40 39.3633 40 37.68H38ZM36.9594 41.2183C36.3511 42.1622 35.3949 42.8198 33.9763 43.1453L34.4237 45.0947C36.2584 44.6736 37.7022 43.7578 38.6406 42.3017L36.9594 41.2183ZM33.2 44.12V49.36H35.2V44.12H33.2ZM34.2 48.36H31.12V50.36H34.2V48.36ZM32.12 49.36V44.32H30.12V49.36H32.12ZM31.2247 43.3255C30.2763 43.2257 29.4012 43.0397 28.5962 42.7713L27.9638 44.6687C28.9188 44.987 29.937 45.201 31.0153 45.3145L31.2247 43.3255ZM28.6311 42.7837C27.8457 42.4891 27.2533 42.162 26.8247 41.8191L25.5753 43.3809C26.2134 43.8913 27.0076 44.3109 27.9289 44.6563L28.6311 42.7837ZM27.1369 42.9496L28.1369 40.2696L26.2631 39.5704L25.2631 42.2504L27.1369 42.9496ZM26.6289 40.7409C27.3215 41.2227 28.1064 41.6201 28.9757 41.9389L29.6643 40.0611C28.9336 39.7932 28.3051 39.4706 27.7711 39.0991L26.6289 40.7409ZM29.0038 41.9487C29.9131 42.2518 30.8739 42.4 31.88 42.4V40.4C31.0727 40.4 30.3269 40.2815 29.6362 40.0513L29.0038 41.9487ZM31.88 42.4C33.24 42.4 34.4354 42.0079 35.2457 41.0432L33.7143 39.7568C33.4046 40.1255 32.8667 40.4 31.88 40.4V42.4ZM35.2579 41.0283C35.992 40.1196 36.32 38.9886 36.32 37.72H34.32C34.32 38.6381 34.088 39.2938 33.7021 39.7717L35.2579 41.0283ZM36.32 37.72C36.32 36.9683 36.1945 36.2599 35.9216 35.6119L34.0784 36.3881C34.2322 36.7534 34.32 37.1917 34.32 37.72H36.32ZM35.9383 35.6543C35.7108 35.0367 35.383 34.4781 34.9557 33.9851L33.4443 35.2949C33.7103 35.6019 33.9159 35.95 34.0617 36.3457L35.9383 35.6543ZM34.9557 33.9851C34.5536 33.5211 34.0928 33.1074 33.5767 32.743L32.4233 34.377C32.8138 34.6526 33.153 34.9589 33.4443 35.2949L34.9557 33.9851ZM33.6306 32.7839C33.1784 32.4164 32.6996 32.0645 32.1947 31.7279L31.0853 33.392C31.5404 33.6955 31.9683 34.0102 32.3694 34.3361L33.6306 32.7839ZM32.1863 31.7224C31.5815 31.3279 30.9764 30.9202 30.3711 30.4991L29.2289 32.1409C29.8503 32.5731 30.4719 32.9921 31.0937 33.3976L32.1863 31.7224ZM30.3882 30.5113C29.8655 30.1312 29.3894 29.6911 28.9593 29.1892L27.4407 30.4908C27.9706 31.1089 28.5611 31.6555 29.2118 32.1287L30.3882 30.5113ZM28.974 29.2068C28.5574 28.6977 28.2048 28.1127 27.9191 27.4461L26.0809 28.2339C26.4352 29.0606 26.8826 29.809 27.426 30.4732L28.974 29.2068ZM27.935 27.4853C27.6951 26.8528 27.56 26.0589 27.56 25.08H25.56C25.56 26.2344 25.7183 27.2805 26.065 28.1947L27.935 27.4853ZM27.56 25.08C27.56 24.5079 27.6399 23.9319 27.803 23.3496L25.877 22.8104C25.6667 23.5614 25.56 24.3187 25.56 25.08H27.56ZM27.7958 23.3741C27.9829 22.766 28.2363 22.2283 28.5521 21.7547L26.8879 20.6453C26.457 21.2917 26.1238 22.0073 25.8842 22.7859L27.7958 23.3741ZM28.5462 21.7633C28.8863 21.2646 29.2922 20.8365 29.766 20.4754L28.554 18.8846C27.9078 19.3768 27.3537 19.9621 26.8938 20.6367L28.5462 21.7633ZM29.7892 20.4572C30.2367 20.095 30.7672 19.8208 31.3947 19.6415L30.8453 17.7185C29.9794 17.9659 29.2033 18.3584 28.5308 18.9028L29.7892 20.4572ZM32.12 18.68V13.96H30.12V18.68H32.12ZM31.12 14.96H34.2V12.96H31.12V14.96ZM33.2 13.96V18.4H35.2V13.96H33.2ZM34.0896 19.3939C34.7447 19.4667 35.3553 19.5992 35.9238 19.7887L36.5562 17.8913C35.8447 17.6541 35.0953 17.4933 34.3104 17.4061L34.0896 19.3939ZM35.9704 19.803C36.5731 19.9717 37.1004 20.1845 37.5581 20.4362L38.5219 18.6838C37.9129 18.3488 37.2403 18.0816 36.5096 17.877L35.9704 19.803ZM37.097 19.2272L36.137 21.9472L38.023 22.6128L38.983 19.8928L37.097 19.2272ZM37.5619 21.4038C36.971 21.0788 36.3511 20.8132 35.7032 20.6071L35.0968 22.5129C35.6223 22.6801 36.1223 22.8946 36.5981 23.1562L37.5619 21.4038ZM35.7417 20.6202C35.0475 20.3678 34.332 20.24 33.6 20.24V22.24C34.0947 22.24 34.5791 22.3256 35.0583 22.4998L35.7417 20.6202ZM33.6 20.24C32.4056 20.24 31.3459 20.6301 30.4829 21.4241L31.8371 22.8959C32.3074 22.4632 32.8744 22.24 33.6 22.24V20.24ZM30.4681 21.438C29.5507 22.3172 29.2 23.6106 29.2 25.08H31.2C31.2 23.8827 31.4893 23.2295 31.8519 22.882L30.4681 21.438ZM29.2 25.08C29.2 25.8456 29.344 26.5641 29.6656 27.2072L31.4544 26.3128C31.296 25.9959 31.2 25.5944 31.2 25.08H29.2ZM29.6656 27.2072C29.9562 27.7884 30.341 28.3152 30.8129 28.7871L32.2271 27.3729C31.899 27.0448 31.6438 26.6916 31.4544 26.3128L29.6656 27.2072ZM30.8129 28.7871C31.2601 29.2343 31.7619 29.6467 32.3153 30.0253L33.4447 28.3747C32.9848 28.06 32.5799 27.7256 32.2271 27.3729L30.8129 28.7871ZM32.3655 30.0575C32.8778 30.3649 33.3915 30.6987 33.9065 31.0592L35.0535 29.4208C34.5018 29.0346 33.9488 28.6751 33.3945 28.3425L32.3655 30.0575ZM33.8988 31.0537C34.4441 31.4433 34.9763 31.8456 35.4953 32.2609L36.7447 30.6991C36.1971 30.261 35.6359 29.8367 35.0612 29.4263L33.8988 31.0537ZM35.514 32.2754C35.9944 32.6414 36.42 33.0777 36.7913 33.5882L38.4087 32.4118C37.9267 31.749 37.3656 31.1719 36.726 30.6846L35.514 32.2754ZM36.8046 33.606C37.1505 34.0601 37.4345 34.6183 37.6449 35.2964L39.5551 34.7036C39.2855 33.835 38.9028 33.0599 38.3954 32.394L36.8046 33.606ZM37.6583 35.3363C37.8765 35.9473 38 36.7209 38 37.68H40C40 36.5591 39.8569 35.546 39.5417 34.6637L37.6583 35.3363Z" fill="black"/>
</svg>
