<svg width="64" height="64" viewBox="0 0 64 64" fill="none" xmlns="http://www.w3.org/2000/svg">
<path d="M46.75 17.5C46.75 17.5402 46.7372 17.8349 46.1552 18.361C45.5733 18.887 44.6051 19.4639 43.2173 19.9946C40.457 21.05 36.4918 21.75 32 21.75C27.5082 21.75 23.543 21.05 20.7827 19.9946C19.3949 19.4639 18.4267 18.887 17.8448 18.361C17.2628 17.8349 17.25 17.5402 17.25 17.5C17.25 17.4598 17.2628 17.1651 17.8448 16.639C18.4267 16.113 19.3949 15.5361 20.7827 15.0054C23.543 13.95 27.5082 13.25 32 13.25C36.4918 13.25 40.457 13.95 43.2173 15.0054C44.6051 15.5361 45.5733 16.113 46.1552 16.639C46.7372 17.1651 46.75 17.4598 46.75 17.5Z" stroke="black" stroke-width="4.5"/>
<path d="M46.75 47.5C46.75 47.5402 46.7372 47.8349 46.1552 48.361C45.5733 48.887 44.6051 49.4639 43.2173 49.9946C40.457 51.05 36.4918 51.75 32 51.75C27.5082 51.75 23.543 51.05 20.7827 49.9946C19.3949 49.4639 18.4267 48.887 17.8448 48.361C17.2628 47.8349 17.25 47.5402 17.25 47.5C17.25 47.4598 17.2628 47.1651 17.8448 46.639C18.4267 46.113 19.3949 45.5361 20.7827 45.0054C23.543 43.95 27.5082 43.25 32 43.25C36.4918 43.25 40.457 43.95 43.2173 45.0054C44.6051 45.5361 45.5733 46.113 46.1552 46.639C46.7372 47.1651 46.75 47.4598 46.75 47.5Z" stroke="black" stroke-width="4.5"/>
<path d="M46.75 32.5C46.75 32.5402 46.7372 32.8349 46.1552 33.361C45.5733 33.887 44.6051 34.4639 43.2173 34.9946C40.457 36.05 36.4918 36.75 32 36.75C27.5082 36.75 23.543 36.05 20.7827 34.9946C19.3949 34.4639 18.4267 33.887 17.8448 33.361C17.2628 32.8349 17.25 32.5402 17.25 32.5C17.25 32.4598 17.2628 32.1651 17.8448 31.639C18.4267 31.113 19.3949 30.5361 20.7827 30.0054C23.543 28.95 27.5082 28.25 32 28.25C36.4918 28.25 40.457 28.95 43.2173 30.0054C44.6051 30.5361 45.5733 31.113 46.1552 31.639C46.7372 32.1651 46.75 32.4598 46.75 32.5Z" stroke="black" stroke-width="4.5"/>
<line x1="17" y1="17" x2="17" y2="48" stroke="black" stroke-width="4"/>
<line x1="47" y1="48" x2="47" y2="17" stroke="black" stroke-width="4"/>
</svg>
