<svg width="153" height="52" viewBox="0 0 153 52" fill="none" xmlns="http://www.w3.org/2000/svg">
<path fill-rule="evenodd" clip-rule="evenodd" d="M63.9527 4.5873C63.9527 7.28571 61.5242 9.44444 59.0956 9.44444C56.3972 9.44444 54.5083 7.28571 54.5083 4.5873C54.5083 2.15873 56.3972 0 59.0956 0C61.794 0 63.9527 2.15873 63.9527 4.5873ZM36.1587 37.2382C36.1587 38.5874 36.9683 39.397 38.3175 39.397H41.0159C42.3651 39.397 43.1746 38.5874 43.1746 37.2382V23.2065C43.1746 16.1906 39.3968 12.4128 33.7302 12.4128C29.9524 12.4128 26.7143 15.3811 25.0952 17.5398C24.5556 17.8097 24.0159 17.8097 23.746 17.27C22.3968 14.0319 19.4286 12.4128 15.6508 12.4128C11.873 12.4128 9.1746 15.1113 7.28571 17.0001C6.74603 17.5398 6.20635 17.27 6.20635 17.0001L5.12698 14.3017C4.5873 13.2224 4.04762 12.9525 3.2381 12.9525H1.61905C0.809524 12.9525 0 13.762 0 14.5716V37.2382C0 38.5874 0.809524 39.397 2.15873 39.397H4.85714C6.20635 39.397 7.01587 38.5874 7.01587 37.2382V22.9367C7.01587 22.1271 7.28571 21.5874 7.8254 21.0478C9.1746 19.9684 11.0635 18.6192 12.9524 18.6192C15.9206 18.6192 18.0794 20.5081 18.0794 23.7462V37.5081C18.0794 38.8573 18.8889 39.6668 20.2381 39.6668H22.9365C24.2857 39.6668 25.0952 38.8573 25.0952 37.5081V23.4763C25.0952 22.6668 25.3651 22.1271 25.9048 21.5874C25.9872 21.5215 26.0717 21.4535 26.158 21.384C27.4848 20.3163 29.2583 18.889 31.0317 18.889C34 18.889 36.1587 20.7779 36.1587 24.016V37.2382ZM138.428 12.4128C129.793 12.4128 123.857 18.3494 123.857 25.9049C123.857 33.7303 129.793 39.9367 138.428 39.9367C147.063 39.9367 153 33.7303 153 25.9049C153 18.3494 147.063 12.4128 138.428 12.4128ZM138.428 33.7303C134.111 33.7303 130.603 30.7621 130.603 26.1747C130.603 21.8573 133.841 18.6192 138.428 18.6192C142.746 18.6192 146.254 21.5874 146.254 26.1747C146.254 30.4922 142.746 33.7303 138.428 33.7303ZM50.1903 19.9683C51.8094 19.9683 53.4284 19.1587 54.7776 18.0794C55.0475 17.8095 55.857 17.8095 55.857 18.3492V33.4603H50.9999C49.6507 33.4603 48.8411 34.2698 48.8411 35.6191V36.9683C48.8411 38.3175 49.6507 39.127 50.9999 39.127H67.4602C68.8094 39.127 69.6189 38.3175 69.6189 36.9683V35.6191C69.6189 34.2698 68.8094 33.4603 67.4602 33.4603H62.603V15.1111C62.603 13.7619 61.7935 12.9524 60.4443 12.9524H50.73C49.3808 12.9524 48.5713 13.7619 48.5713 15.1111V18.3492C48.5713 19.4286 49.111 19.9683 50.1903 19.9683ZM113.873 39.397C112.524 39.397 111.714 38.5874 111.714 37.2382V24.016C111.714 20.7779 109.556 18.889 106.587 18.889C104.814 18.889 103.04 20.3163 101.714 21.3841C101.627 21.4535 101.543 21.5215 101.46 21.5874C100.921 22.1271 100.651 22.6668 100.651 23.4763V37.5081C100.651 38.8573 99.8414 39.6668 98.4922 39.6668H95.7938C94.4446 39.6668 93.635 38.8573 93.635 37.5081V23.7462C93.635 20.5081 91.4763 18.6192 88.508 18.6192C86.6192 18.6192 84.7303 19.9684 83.3811 21.0478C82.8414 21.5874 82.5715 22.1271 82.5715 22.9367V36.9684C82.5715 38.3176 81.762 39.1271 80.4128 39.1271H77.7144C76.3652 39.1271 75.5557 38.3176 75.5557 36.9684V14.3017C75.5557 13.4922 76.3652 12.6827 77.1747 12.6827H78.7938C79.6033 12.6827 80.4128 13.2224 80.6826 14.0319L81.762 16.7303C82.0319 17.27 82.5715 17.27 82.8414 17.0001C84.7303 15.1113 87.4287 12.4128 91.2065 12.4128C95.2541 12.4128 97.9525 14.0319 99.5715 17.27C99.8414 17.8097 100.381 17.8097 100.651 17.5398C102.27 15.3811 105.508 12.4128 109.286 12.4128C114.952 12.4128 118.73 16.1906 118.73 23.2065V37.2382C118.73 38.5874 117.921 39.397 116.572 39.397H113.873Z" fill="#3E416D"/>
</svg>