<svg width="64" height="64" viewBox="0 0 64 64" fill="none" xmlns="http://www.w3.org/2000/svg">
<path d="M16 30.5L15.331 29.7567L13.394 31.5L16 31.5L16 30.5ZM26 21.5L26.669 22.2433L28.606 20.5L26 20.5L26 21.5ZM19.5 21.5L19.5 20.5L19.0987 20.5L18.8088 20.7774L19.5 21.5ZM8 32.5L7.30878 31.7774L6.55329 32.5L7.30878 33.2226L8 32.5ZM19.5 43.5L18.8088 44.2226L19.0987 44.5L19.5 44.5L19.5 43.5ZM26 43.5L26 44.5L28.606 44.5L26.669 42.7567L26 43.5ZM16 34.5L16 33.5L13.394 33.5L15.331 35.2433L16 34.5ZM33 29.5L16 29.5L16 31.5L33 31.5L33 29.5ZM16.669 31.2433L26.669 22.2433L25.331 20.7567L15.331 29.7567L16.669 31.2433ZM26 20.5L19.5 20.5L19.5 22.5L26 22.5L26 20.5ZM18.8088 20.7774L7.30878 31.7774L8.69122 33.2226L20.1912 22.2226L18.8088 20.7774ZM7.30878 33.2226L18.8088 44.2226L20.1912 42.7774L8.69122 31.7774L7.30878 33.2226ZM19.5 44.5L26 44.5L26 42.5L19.5 42.5L19.5 44.5ZM26.669 42.7567L16.669 33.7567L15.331 35.2433L25.331 44.2433L26.669 42.7567ZM16 35.5L33 35.5L33 33.5L16 33.5L16 35.5Z" fill="black"/>
<path d="M32.7942 34.5L41.0442 48.7894L28.25 44.6292L31.5 50.2583L46.7763 54.7176L50.5526 39.2583L47.3025 33.6292L44.5083 46.7894L36.2583 32.5" stroke="black" stroke-width="2"/>
<path d="M44.5083 18.4282L45.4865 18.2205L44.9453 15.6714L43.6423 17.9282L44.5083 18.4282ZM47.3026 31.5885L46.3244 31.7961L46.8656 34.3453L48.1686 32.0885L47.3026 31.5885ZM50.5526 25.9593L51.4186 26.4593L51.6192 26.1118L51.524 25.722L50.5526 25.9593ZM46.7763 10.5L47.7477 10.2627L47.4996 9.24711L46.4961 9.54006L46.7763 10.5ZM31.5 14.9593L31.2198 13.9994L30.8346 14.1118L30.634 14.4593L31.5 14.9593ZM28.25 20.5885L27.384 20.0885L26.081 22.3453L28.5592 21.5394L28.25 20.5885ZM41.0442 16.4282L41.9103 16.9282L43.2132 14.6714L40.735 15.4772L41.0442 16.4282ZM37.1244 33.2176L45.3744 18.9282L43.6423 17.9282L35.3923 32.2176L37.1244 33.2176ZM43.5301 18.6359L46.3244 31.7961L48.2807 31.3808L45.4865 18.2205L43.5301 18.6359ZM48.1686 32.0885L51.4186 26.4593L49.6865 25.4593L46.4365 31.0885L48.1686 32.0885ZM51.524 25.722L47.7477 10.2627L45.8048 10.7373L49.5811 26.1966L51.524 25.722ZM46.4961 9.54006L31.2198 13.9994L31.7802 15.9192L47.0565 11.4599L46.4961 9.54006ZM30.634 14.4593L27.384 20.0885L29.116 21.0885L32.366 15.4593L30.634 14.4593ZM28.5592 21.5394L41.3535 17.3792L40.735 15.4772L27.9408 19.6375L28.5592 21.5394ZM40.1782 15.9282L31.9282 30.2176L33.6603 31.2176L41.9103 16.9282L40.1782 15.9282Z" fill="black"/>
</svg>
